HIERARCHY
ROOT Hips
{
	OFFSET -3.958830 18.904000 13.208200
	CHANNELS 6 Xposition Yposition Zposition Zrotation Yrotation Xrotation 
	JOINT LHipJoint
	{
		OFFSET 0.000000 0.000000 0.000000
		CHANNELS 3 Zrotation Yrotation Xrotation
		JOINT LeftUpLeg
		{
			OFFSET 1.800000 -1.400000 0.085000
			CHANNELS 3 Zrotation Yrotation Xrotation
			JOINT LeftLeg
			{
				OFFSET 2.215000 -6.000000 0.000000
				CHANNELS 3 Zrotation Yrotation Xrotation
				JOINT LeftFoot
				{
					OFFSET 2.500000 -6.900000 0.000000
					CHANNELS 3 Zrotation Yrotation Xrotation
					JOINT LeftToeBase
					{
						OFFSET 0.200000 -0.500000 1.950000
						CHANNELS 3 Zrotation Yrotation Xrotation
						End Site
						{
							OFFSET 0.000000 0.000000 0.000000
						}
					}
				}
			}
		}
	}
	JOINT RHipJoint
	{
		OFFSET 0.000000 0.000000 0.000000
		CHANNELS 3 Zrotation Yrotation Xrotation
		JOINT RightUpLeg
		{
			OFFSET -1.800000 -1.400000 0.085000
			CHANNELS 3 Zrotation Yrotation Xrotation
			JOINT RightLeg
			{
				OFFSET -2.215000 -6.000000 0.000000
				CHANNELS 3 Zrotation Yrotation Xrotation
				JOINT RightFoot
				{
					OFFSET -2.500000 -6.900000 0.000000
					CHANNELS 3 Zrotation Yrotation Xrotation
					JOINT RightToeBase
					{
						OFFSET -0.200000 -0.500000 1.950000
						CHANNELS 3 Zrotation Yrotation Xrotation
						End Site
						{
							OFFSET 0.000000 0.000000 0.000000
						}
					}
				}
			}
		}
	}
	JOINT LowerBack
	{
		OFFSET 0.000000 0.000000 0.000000
		CHANNELS 3 Zrotation Yrotation Xrotation
		JOINT Spine
		{
			OFFSET -0.087000 1.940000 -0.288900
			CHANNELS 3 Zrotation Yrotation Xrotation
			JOINT Spine1
			{
				OFFSET 0.000000 1.950000 0.060000
				CHANNELS 3 Zrotation Yrotation Xrotation
				JOINT Neck
				{
					OFFSET 0.000000 0.000000 0.000000
					CHANNELS 3 Zrotation Yrotation Xrotation
					JOINT Neck1
					{
						OFFSET 0.000000 1.600000 0.340000
						CHANNELS 3 Zrotation Yrotation Xrotation
						JOINT Head
						{
							OFFSET 0.000000 1.667000 -0.240000
							CHANNELS 3 Zrotation Yrotation Xrotation
							End Site
							{
								OFFSET 0.000000 0.000000 0.000000
							}
						}
					}
				}
				JOINT LeftShoulder
				{
					OFFSET 0.000000 0.000000 0.000000
					CHANNELS 3 Zrotation Yrotation Xrotation
					JOINT LeftArm
					{
						OFFSET 2.700000 1.550000 -0.730000
						CHANNELS 3 Zrotation Yrotation Xrotation
						JOINT LeftForeArm
						{
							OFFSET 5.450000 0.000000 0.000000
							CHANNELS 3 Zrotation Yrotation Xrotation
							JOINT LeftHand
							{
								OFFSET 3.450000 0.000000 0.000000
								CHANNELS 3 Zrotation Yrotation Xrotation
								JOINT LeftHandIndex1
								{
									OFFSET 0.750000 0.000000 0.000000
									CHANNELS 3 Zrotation Yrotation Xrotation
									End Site
									{
										OFFSET 0.000000 0.000000 0.000000
									}
								}
							}
						}
					}
				}
				JOINT RightShoulder
				{
					OFFSET 0.000000 0.000000 0.000000
					CHANNELS 3 Zrotation Yrotation Xrotation
					JOINT RightArm
					{
						OFFSET -2.700000 1.550000 -0.730000
						CHANNELS 3 Zrotation Yrotation Xrotation
						JOINT RightForeArm
						{
							OFFSET -5.450000 0.000000 0.000000
							CHANNELS 3 Zrotation Yrotation Xrotation
							JOINT RightHand
							{
								OFFSET -3.450000 0.000000 0.000000
								CHANNELS 3 Zrotation Yrotation Xrotation
								JOINT RightHandIndex1
								{
									OFFSET -0.750000 0.000000 0.000000
									CHANNELS 3 Zrotation Yrotation Xrotation
									End Site
									{
										OFFSET 0.000000 0.000000 0.000000
									}
								}
							}
						}
					}
				}
			}
		}
	}
}
MOTION
Frames: 7
Frame Time: 0.016667
-0.914160 16.571330 -0.758800 -4.629743 -1.302017 -4.815431 -14.666225 13.935834 3.291403 15.991408 -0.745687 -15.762108 -8.211633 6.980878 16.437443 -1.448035 5.511536 2.659234 -0.233620 -0.651380 -0.461330 18.367362 -11.573792 2.593957 -7.420848 1.815362 -12.960504 2.597078 -5.903741 20.207017 -0.394435 -3.493648 3.299649 -0.184690 0.776600 0.177550 -4.399200 -1.552878 -7.940176 20.372289 -1.501396 16.964371 -9.953240 2.855519 -2.001582 5.226456 -5.721328 -13.203108 -15.955955 7.962917 62.292617 0.796140 -2.072920 -22.319410 -36.177379 -13.552369 2.802011 -49.937805 -2.339474 -3.000229 14.547580 -5.362585 -2.857607 -3.996585 1.877079 1.563690 0.056350 0.061440 0.188030 24.633284 20.925816 9.268133 57.070923 5.362063 -3.825341 -8.186085 -2.571731 1.834374 1.827904 -0.369260 -0.933300 1.028600 0.833220 -0.285240 
-0.917930 16.568800 -0.756880 -4.611657 -1.424346 -4.866451 -14.655835 13.926502 3.271369 15.976624 -0.737345 -15.717043 -8.066170 6.960322 16.511679 -1.453098 5.506097 2.664267 -0.238300 -0.655290 -0.464450 18.379496 -11.595596 2.589868 -7.452543 1.794582 -12.952580 2.537131 -5.911024 20.301853 -0.391380 -3.510268 3.295767 -0.183320 0.784700 0.174830 -4.427609 -1.499365 -7.918134 20.393575 -1.534612 16.794531 -10.151423 2.770194 -1.752996 5.249909 -5.677244 -13.168701 -15.757379 7.998651 62.171019 0.853690 -1.969140 -22.041810 -35.866304 -13.657117 2.888406 -50.145292 -2.458159 -3.020373 14.613270 -5.497408 -2.894594 -4.003123 1.874700 1.558710 0.063500 0.055060 0.187860 24.263796 20.947900 9.222329 57.366325 5.678431 -3.760793 -8.262435 -2.544210 1.823010 1.825530 -0.373605 -0.938390 1.033120 0.835820 -0.285190 
-0.924850 16.565110 -0.752770 -4.577008 -1.737392 -4.958411 -14.637476 13.919350 3.231132 15.924558 -0.717347 -15.608410 -7.747712 6.910071 16.659024 -1.468329 5.495807 2.673867 -0.244650 -0.663460 -0.470160 18.401316 -11.629769 2.581951 -7.493845 1.744120 -12.888602 2.378597 -5.894909 20.331872 -0.383333 -3.528796 3.296653 -0.180410 0.799370 0.170260 -4.476149 -1.426066 -7.870548 20.509980 -1.616052 16.474889 -10.497602 2.607840 -1.311526 5.301127 -5.727570 -13.143002 -15.778109 8.240761 61.953310 0.758790 -1.768610 -21.506880 -35.344973 -13.817438 3.037081 -50.524152 -2.588015 -3.061084 14.721683 -5.739472 -2.962378 -4.014639 1.869715 1.552740 0.077360 0.041070 0.188160 23.631210 21.042630 9.165964 57.829241 6.225161 -3.636902 -8.334963 -2.521340 1.807137 1.816858 -0.380914 -0.949100 1.041560 0.842140 -0.287540 
-0.930740 16.568750 -0.746820 -4.449016 -2.224553 -5.165802 -14.618921 13.951802 3.179466 15.682765 -0.678311 -15.263248 -7.194773 6.768464 16.710670 -1.482124 5.440080 2.699850 -0.243960 -0.660910 -0.468280 18.414676 -11.676362 2.576411 -7.595413 1.644761 -12.672951 2.085050 -5.837257 20.248752 -0.384623 -3.533072 3.297220 -0.176540 0.802260 0.171560 -4.507571 -1.389883 -7.825651 20.516817 -1.694926 16.234965 -10.979543 2.477073 -0.929366 5.440779 -5.656685 -13.284968 -15.675550 8.510047 62.376985 0.578780 -1.506310 -21.114720 -35.225305 -14.146633 3.267225 -50.442303 -2.490294 -3.091183 14.990195 -5.660906 -2.971057 -4.021293 1.866702 1.551510 0.083830 0.041690 0.187900 23.231930 21.243008 9.202089 58.146147 6.520129 -3.629209 -8.444168 -2.182241 1.745941 1.806895 -0.384397 -0.950630 1.045230 0.843260 -0.288880 
-0.936270 16.575250 -0.737170 -4.369518 -2.792601 -5.377267 -14.594313 13.980815 3.120579 15.444903 -0.620441 -14.803362 -6.585892 6.588838 16.612687 -1.493357 5.363527 2.734007 -0.240350 -0.651990 -0.463930 18.435922 -11.723638 2.573137 -7.625211 1.538301 -12.421197 1.782944 -5.770433 20.117573 -0.390272 -3.528409 3.300659 -0.171310 0.798950 0.169650 -4.556781 -1.341098 -7.766772 20.725692 -1.856570 15.952781 -11.666526 2.286912 -0.657939 5.609888 -5.708941 -13.378309 -15.826841 8.959855 62.801446 0.444570 -1.178330 -21.038240 -35.031935 -14.235372 3.438174 -50.362688 -2.288170 -3.145203 15.125723 -5.710739 -2.980908 -4.020615 1.859426 1.552460 0.083380 0.047930 0.187690 22.670609 21.288181 9.166743 58.716789 6.925839 -3.602336 -8.618996 -1.844716 1.690897 1.800668 -0.384552 -0.949860 1.050960 0.841190 -0.289490 
-0.943630 16.585220 -0.724530 -4.264222 -3.384288 -5.584930 -14.571373 14.010457 3.061636 15.187607 -0.570940 -14.299140 -5.955764 6.401643 16.490668 -1.509798 5.296777 2.767131 -0.244240 -0.656710 -0.457000 18.455770 -11.766177 2.572626 -7.712436 1.391309 -12.057790 1.569699 -5.712279 19.716163 -0.390854 -3.518011 3.307202 -0.171090 0.800110 0.169460 -4.601368 -1.303436 -7.713435 20.848290 -2.004198 15.567145 -12.342903 2.070282 -0.344878 5.794163 -5.607214 -13.478853 -15.618576 9.256016 63.288247 0.114430 -0.791640 -20.739540 -34.931576 -14.424524 3.666732 -50.025328 -2.022225 -3.092669 14.918875 -5.587439 -2.933236 -4.029502 1.843528 1.554520 0.089270 0.049350 0.181850 22.170911 21.295077 9.121570 59.362172 7.259763 -3.675646 -8.963844 -1.256785 1.582732 1.788385 -0.382798 -0.954950 1.056550 0.844530 -0.294760 
-0.953120 16.600870 -0.709630 -4.204024 -4.098668 -5.781860 -14.539291 14.019629 3.007621 15.006911 -0.499960 -13.657510 -5.463966 6.229387 16.166699 -1.521917 5.237031 2.799238 -0.246820 -0.658000 -0.455700 18.488263 -11.809950 2.572711 -7.665878 1.262909 -11.673953 1.262993 -5.632799 19.420786 -0.393356 -3.515990 3.310854 -0.168200 0.803340 0.165560 -4.674198 -1.231976 -7.652455 21.195961 -2.175242 15.066570 -13.225996 1.890008 0.159155 5.970576 -5.584547 -13.742339 -15.650031 9.664600 63.776697 0.019560 -0.513720 -20.244380 -34.889511 -14.893868 4.029961 -49.415075 -1.625537 -2.993314 14.507172 -5.357661 -2.841332 -4.032622 1.833227 1.554080 0.093620 0.048040 0.179600 21.743551 21.651147 9.239056 59.926604 7.500599 -3.759277 -9.154099 -0.570974 1.461606 1.773427 -0.384485 -0.960130 1.063300 0.847250 -0.296730 
